<mxfile host="app.diagrams.net" modified="2023-03-17T08:16:56.087Z" agent="5.0 (Macintosh; Intel Mac OS X 10_15_7) AppleWebKit/537.36 (KHTML, like Gecko) Chrome/111.0.0.0 Safari/537.36" etag="2JMQTZ2n4L4pw4Q1XKfZ" version="20.8.23" type="github">
  <diagram id="C5RBs43oDa-KdzZeNtuy" name="Page-1">
    <mxGraphModel dx="2501" dy="1940" grid="1" gridSize="10" guides="1" tooltips="1" connect="1" arrows="1" fold="1" page="1" pageScale="1" pageWidth="827" pageHeight="1169" math="0" shadow="0">
      <root>
        <mxCell id="WIyWlLk6GJQsqaUBKTNV-0" />
        <mxCell id="WIyWlLk6GJQsqaUBKTNV-1" parent="WIyWlLk6GJQsqaUBKTNV-0" />
        <mxCell id="WIyWlLk6GJQsqaUBKTNV-2" value="" style="rounded=0;html=1;jettySize=auto;orthogonalLoop=1;fontSize=11;endArrow=block;endFill=0;endSize=8;strokeWidth=1;shadow=0;labelBackgroundColor=none;edgeStyle=orthogonalEdgeStyle;" parent="WIyWlLk6GJQsqaUBKTNV-1" source="WIyWlLk6GJQsqaUBKTNV-3" edge="1">
          <mxGeometry relative="1" as="geometry">
            <mxPoint x="-190" y="280" as="targetPoint" />
            <Array as="points">
              <mxPoint x="-190" y="170" />
            </Array>
          </mxGeometry>
        </mxCell>
        <mxCell id="WIyWlLk6GJQsqaUBKTNV-3" value="监测服务后端" style="rounded=1;whiteSpace=wrap;html=1;fontSize=12;glass=0;strokeWidth=1;shadow=0;" parent="WIyWlLk6GJQsqaUBKTNV-1" vertex="1">
          <mxGeometry x="-250" y="80" width="120" height="40" as="geometry" />
        </mxCell>
        <mxCell id="gVdUNQiM0cjy-C_MjOx8-0" value="任务编排中心，记录每个任务和任务执行节点的ID" style="rounded=1;whiteSpace=wrap;html=1;" vertex="1" parent="WIyWlLk6GJQsqaUBKTNV-1">
          <mxGeometry x="-277" y="290" width="1410" height="60" as="geometry" />
        </mxCell>
        <mxCell id="gVdUNQiM0cjy-C_MjOx8-1" value="1.签约任务模版ID" style="text;html=1;align=center;verticalAlign=middle;resizable=0;points=[];autosize=1;strokeColor=none;fillColor=none;" vertex="1" parent="WIyWlLk6GJQsqaUBKTNV-1">
          <mxGeometry x="-195" y="185" width="120" height="30" as="geometry" />
        </mxCell>
        <mxCell id="gVdUNQiM0cjy-C_MjOx8-2" value="医生发出签约申请" style="triangle;whiteSpace=wrap;html=1;" vertex="1" parent="WIyWlLk6GJQsqaUBKTNV-1">
          <mxGeometry x="-260" y="-50" width="370" height="80" as="geometry" />
        </mxCell>
        <mxCell id="gVdUNQiM0cjy-C_MjOx8-3" value="患者收到消息同意申请并填写个人信息" style="triangle;whiteSpace=wrap;html=1;" vertex="1" parent="WIyWlLk6GJQsqaUBKTNV-1">
          <mxGeometry x="110" y="-50" width="390" height="80" as="geometry" />
        </mxCell>
        <mxCell id="gVdUNQiM0cjy-C_MjOx8-4" value="医生审核通过" style="triangle;whiteSpace=wrap;html=1;" vertex="1" parent="WIyWlLk6GJQsqaUBKTNV-1">
          <mxGeometry x="500" y="-50" width="320" height="80" as="geometry" />
        </mxCell>
        <mxCell id="gVdUNQiM0cjy-C_MjOx8-5" value="短信通知患者完成签约" style="triangle;whiteSpace=wrap;html=1;" vertex="1" parent="WIyWlLk6GJQsqaUBKTNV-1">
          <mxGeometry x="827" y="-50" width="370" height="80" as="geometry" />
        </mxCell>
        <mxCell id="gVdUNQiM0cjy-C_MjOx8-7" style="edgeStyle=orthogonalEdgeStyle;rounded=0;orthogonalLoop=1;jettySize=auto;html=1;entryX=0;entryY=0.5;entryDx=0;entryDy=0;" edge="1" parent="WIyWlLk6GJQsqaUBKTNV-1" source="gVdUNQiM0cjy-C_MjOx8-6" target="WIyWlLk6GJQsqaUBKTNV-3">
          <mxGeometry relative="1" as="geometry" />
        </mxCell>
        <mxCell id="gVdUNQiM0cjy-C_MjOx8-6" value="医生端客户端" style="whiteSpace=wrap;html=1;aspect=fixed;" vertex="1" parent="WIyWlLk6GJQsqaUBKTNV-1">
          <mxGeometry x="-413" y="60" width="80" height="80" as="geometry" />
        </mxCell>
        <mxCell id="gVdUNQiM0cjy-C_MjOx8-8" value="申请签约能力块" style="whiteSpace=wrap;html=1;aspect=fixed;" vertex="1" parent="WIyWlLk6GJQsqaUBKTNV-1">
          <mxGeometry x="-250" y="520" width="80" height="80" as="geometry" />
        </mxCell>
        <mxCell id="gVdUNQiM0cjy-C_MjOx8-9" value="" style="rounded=0;html=1;jettySize=auto;orthogonalLoop=1;fontSize=11;endArrow=block;endFill=0;endSize=8;strokeWidth=1;shadow=0;labelBackgroundColor=none;edgeStyle=orthogonalEdgeStyle;" edge="1" parent="WIyWlLk6GJQsqaUBKTNV-1">
          <mxGeometry relative="1" as="geometry">
            <mxPoint x="-220" y="350" as="sourcePoint" />
            <mxPoint x="-220" y="510" as="targetPoint" />
            <Array as="points">
              <mxPoint x="-220" y="400" />
            </Array>
          </mxGeometry>
        </mxCell>
        <mxCell id="gVdUNQiM0cjy-C_MjOx8-10" value="任务编排中心发布消息：&lt;br&gt;消息参数（1.执行能力块&amp;nbsp; ，&lt;br&gt;2.任务ID 3.业务参数）" style="text;html=1;align=center;verticalAlign=middle;resizable=0;points=[];autosize=1;strokeColor=none;fillColor=none;" vertex="1" parent="WIyWlLk6GJQsqaUBKTNV-1">
          <mxGeometry x="-345" y="390" width="170" height="60" as="geometry" />
        </mxCell>
        <mxCell id="gVdUNQiM0cjy-C_MjOx8-11" value="申请签约能力块" style="whiteSpace=wrap;html=1;aspect=fixed;" vertex="1" parent="WIyWlLk6GJQsqaUBKTNV-1">
          <mxGeometry x="70" y="520" width="80" height="80" as="geometry" />
        </mxCell>
        <mxCell id="gVdUNQiM0cjy-C_MjOx8-12" value="申请签约能力块" style="whiteSpace=wrap;html=1;aspect=fixed;" vertex="1" parent="WIyWlLk6GJQsqaUBKTNV-1">
          <mxGeometry x="480" y="520" width="80" height="80" as="geometry" />
        </mxCell>
        <mxCell id="gVdUNQiM0cjy-C_MjOx8-13" value="申请签约能力块" style="whiteSpace=wrap;html=1;aspect=fixed;" vertex="1" parent="WIyWlLk6GJQsqaUBKTNV-1">
          <mxGeometry x="920" y="510" width="80" height="80" as="geometry" />
        </mxCell>
        <mxCell id="gVdUNQiM0cjy-C_MjOx8-15" value="" style="endArrow=classic;html=1;rounded=0;entryX=0.068;entryY=1.067;entryDx=0;entryDy=0;entryPerimeter=0;exitX=0.838;exitY=-0.062;exitDx=0;exitDy=0;exitPerimeter=0;" edge="1" parent="WIyWlLk6GJQsqaUBKTNV-1" source="gVdUNQiM0cjy-C_MjOx8-8" target="gVdUNQiM0cjy-C_MjOx8-0">
          <mxGeometry width="50" height="50" relative="1" as="geometry">
            <mxPoint x="-190" y="520" as="sourcePoint" />
            <mxPoint x="-140" y="470" as="targetPoint" />
          </mxGeometry>
        </mxCell>
        <mxCell id="gVdUNQiM0cjy-C_MjOx8-16" value="任务ID&lt;br&gt;能力块code&lt;br&gt;业务参数" style="text;html=1;align=center;verticalAlign=middle;resizable=0;points=[];autosize=1;strokeColor=none;fillColor=none;" vertex="1" parent="WIyWlLk6GJQsqaUBKTNV-1">
          <mxGeometry x="-205" y="410" width="90" height="60" as="geometry" />
        </mxCell>
      </root>
    </mxGraphModel>
  </diagram>
</mxfile>
